<svg id="tg-front" data-name="tg-front" xmlns="http://www.w3.org/2000/svg" viewBox="0 0 137 137">
  <defs>
    <style>.cls-1{fill:#27a7e7;}.cls-2{fill:#fff;fill-rule:evenodd;}</style>
  </defs>
  <circle class="cls-1" cx="68.5" cy="68.5" r="68.5" />
  <path id="Path-3" class="cls-2" d="M34.66,65.56q27.84-12.08,37.12-16c17.65-7.37,21.36-8.64,23.75-8.69A4.23,4.23,0,0,1,98,41.6a2.81,2.81,0,0,1,.9,1.75A9.21,9.21,0,0,1,99,45.84c-1,10.08-5.09,34.52-7.21,45.76-.91,4.77-2.65,6.36-4.35,6.52-3.71.31-6.52-2.44-10.07-4.78-5.62-3.65-8.75-5.93-14.21-9.54-6.31-4.13-2.23-6.41,1.38-10.12,1-1,17.23-15.8,17.54-17.13a1.23,1.23,0,0,0-.31-1.11,1.49,1.49,0,0,0-1.33-.11c-.58.11-9.49,6.05-26.83,17.76-2.54,1.75-4.82,2.6-6.89,2.55-2.28-.06-6.63-1.28-9.91-2.34-4-1.27-7.16-2-6.89-4.18C30.1,68,31.69,66.78,34.66,65.56Z"/>
</svg>