<svg id="mm-front" data-name="mm-front" xmlns="http://www.w3.org/2000/svg" viewBox="0 0 137 137">
  <defs>
    <style>.cls-1{fill:#27a7e7;}.cls-2{fill:#efefef;stroke:#fff;stroke-miterlimit:10;}</style>
  </defs>
  <circle class="cls-1" cx="68.5" cy="68.5" r="68.5" />
  <path id="Mail" class="cls-2" d="M94.5,44.5h-52a6,6,0,0,0-6,6v36a6,6,0,0,0,6,6h52a6,6,0,0,0,6-6v-36A6,6,0,0,0,94.5,44.5Zm4,41.11L79.58,66.69l18.92-12ZM42.5,46.5h52a4,4,0,0,1,4,4v1.77L71,69.81a4.41,4.41,0,0,1-4.85-.07L38.5,51V50.5A4,4,0,0,1,42.5,46.5Zm-4,6.89,19.18,13L38.5,85.61Zm56,37.11h-52a4,4,0,0,1-3.68-2.43L59.34,67.55,65,71.4a6.43,6.43,0,0,0,7,.1l5.84-3.72,20.3,20.29A4,4,0,0,1,94.5,90.5Z"/>
</svg>